{
	"asset":{
		"generator":"Khronos glTF Blender I/O v4.2.69",
		"version":"2.0"
	},
	"scene":0,
	"scenes":[
		{
			"name":"Scene",
			"nodes":[
				0
			]
		}
	],
	"nodes":[
		{
			"mesh":0,
			"name":"Landscape.001",
			"scale":[
				40,
				40,
				40
			]
		}
	],
	"meshes":[
		{
			"name":"Landscape mesh.002",
			"primitives":[
				{
					"attributes":{
						"POSITION":0
					},
					"indices":1
				}
			]
		}
	],
	"accessors":[
		{
			"bufferView":0,
			"componentType":5126,
			"count":93975,
			"max":[
				1,
				0.3370383381843567,
				1
			],
			"min":[
				-1,
				0.004584213253110647,
				-1
			],
			"type":"VEC3"
		},
		{
			"bufferView":1,
			"componentType":5125,
			"count":237606,
			"type":"SCALAR"
		}
	],
	"bufferViews":[
		{
			"buffer":0,
			"byteLength":1127700,
			"byteOffset":0,
			"target":34962
		},
		{
			"buffer":0,
			"byteLength":950424,
			"byteOffset":1127700,
			"target":34963
		}
	],
	"buffers":[
		{
			"byteLength":2078124,
			"uri":"data:application/octet-stream;base64,"
		}
	]
}
